<?xml version="1.0" standalone="no"?><!DOCTYPE svg PUBLIC "-//W3C//DTD SVG 1.1//EN" "http://www.w3.org/Graphics/SVG/1.1/DTD/svg11.dtd"><svg t="1561807021410" class="icon" viewBox="0 0 1331 1024" version="1.1" xmlns="http://www.w3.org/2000/svg" p-id="16458" xmlns:xlink="http://www.w3.org/1999/xlink" width="519.921875" height="400"><defs><style type="text/css"></style></defs><path d="M1055.744 102.4h-778.24c-23.552 0-46.08 13.312-57.344 33.792L12.288 518.144v417.792c0 43.008 34.816 77.824 77.824 77.824h1153.024c43.008 0 77.824-34.816 77.824-77.824V518.144l-208.896-381.952c-11.264-20.48-32.768-33.792-56.32-33.792z" fill="#FFFFFF" p-id="16459"></path><path d="M1243.136 1024H90.112c-48.128 0-88.064-39.936-88.064-88.064v-419.84l209.92-384C225.28 107.52 249.856 92.16 277.504 92.16h778.24c27.648 0 53.248 15.36 65.536 38.912L1331.2 516.096v419.84c0 48.128-39.936 88.064-88.064 88.064zM22.528 521.216v414.72c0 36.864 30.72 67.584 67.584 67.584h1153.024c36.864 0 67.584-30.72 67.584-67.584V521.216l-207.872-378.88c-9.216-17.408-27.648-28.672-48.128-28.672H276.48c-20.48 0-37.888 11.264-48.128 28.672l-205.824 378.88z" fill="#61BCF6" p-id="16460"></path><path d="M1250.304 518.144c0 14.336-11.264 26.624-25.6 26.624l-169.984 3.072V665.6c0 35.84-28.672 64.512-64.512 64.512h-645.12c-35.84 0-64.512-28.672-64.512-64.512V546.816H109.568c-14.336 0-26.624-12.288-26.624-26.624v-2.048l180.224-329.728c9.216-16.384 26.624-26.624 45.056-26.624H1024c19.456 0 36.864 10.24 45.056 26.624l181.248 329.728z" fill="#FFFFFF" p-id="16461"></path><path d="M990.208 740.352h-645.12c-40.96 0-74.752-33.792-74.752-74.752V557.056H109.568c-20.48 0-36.864-16.384-36.864-36.864v-4.096l181.248-332.8c11.264-19.456 31.744-32.768 54.272-32.768H1024c22.528 0 44.032 12.288 54.272 32.768L1259.52 516.096v3.072c0 19.456-16.384 35.84-35.84 36.864l-158.72 1.024V665.6c0 40.96-33.792 74.752-74.752 74.752zM93.184 521.216c0 8.192 7.168 15.36 16.384 15.36h181.248V665.6c0 29.696 24.576 54.272 54.272 54.272h645.12c29.696 0 54.272-24.576 54.272-54.272V537.6l179.2-3.072c8.192 0 14.336-6.144 15.36-14.336l-179.2-327.68c-7.168-13.312-21.504-21.504-36.864-21.504H309.248c-15.36 0-29.696 8.192-36.864 21.504L93.184 521.216z" fill="#61BCF6" p-id="16462"></path><path d="M1282.048 576.512c0 11.264-8.192 19.456-19.456 19.456l-156.672 3.072v124.928c0 35.84-28.672 64.512-64.512 64.512h-696.32c-35.84 0-64.512-28.672-64.512-64.512V598.016H162.816c-12.288 0-21.504-9.216-21.504-21.504l187.392-343.04c4.096-8.192 13.312-13.312 22.528-13.312h735.232l195.584 356.352z" fill="#DDF1FD" p-id="16463"></path><path d="M990.208 740.352h-645.12c-40.96 0-74.752-33.792-74.752-74.752V557.056H110.592c-21.504 0-37.888-17.408-37.888-37.888v-3.072l181.248-332.8c11.264-19.456 31.744-32.768 54.272-32.768H1024c22.528 0 44.032 12.288 54.272 32.768L1259.52 516.096v3.072c0 19.456-16.384 35.84-35.84 36.864l-158.72 1.024V665.6c0 40.96-33.792 74.752-74.752 74.752zM93.184 520.192c1.024 9.216 8.192 15.36 17.408 15.36h179.2V665.6c0 29.696 24.576 54.272 54.272 54.272h645.12c29.696 0 54.272-24.576 54.272-54.272V537.6l179.2-3.072c8.192 0 14.336-6.144 15.36-14.336l-179.2-327.68c-7.168-13.312-21.504-21.504-36.864-21.504H309.248c-15.36 0-29.696 8.192-36.864 21.504l-179.2 327.68z" fill="#61BCF6" p-id="16464"></path><path d="M844.8 912.384H487.424c-11.264 0-20.48-9.216-20.48-20.48v-25.6c0-11.264 9.216-20.48 20.48-20.48h357.376c11.264 0 20.48 9.216 20.48 20.48v25.6c0 11.264-9.216 20.48-20.48 20.48z" fill="#C6E6FB" p-id="16465"></path><path d="M844.8 922.624H487.424c-17.408 0-30.72-13.312-30.72-30.72v-25.6c0-17.408 13.312-30.72 30.72-30.72h357.376c17.408 0 30.72 13.312 30.72 30.72v25.6c0 16.384-13.312 30.72-30.72 30.72z m-357.376-67.584c-6.144 0-10.24 5.12-10.24 10.24V890.88c0 6.144 5.12 10.24 10.24 10.24h357.376c6.144 0 10.24-5.12 10.24-10.24v-25.6c0-6.144-5.12-10.24-10.24-10.24H487.424z" fill="#61BCF6" p-id="16466"></path><path d="M479.232 596.992l-19.456-5.12c0-1.024 4.096-15.36 14.336-39.936l18.432 8.192c-9.216 21.504-13.312 35.84-13.312 36.864z m30.72-73.728l-18.432-9.216c6.144-12.288 13.312-24.576 21.504-35.84l17.408 11.264c-7.168 10.24-14.336 22.528-20.48 33.792z m43.008-67.584l-16.384-12.288c8.192-11.264 17.408-21.504 26.624-32.768l15.36 13.312c-8.192 10.24-17.408 20.48-25.6 31.744z m275.456-49.152c-9.216 0-19.456 0-28.672-1.024l2.048-20.48c12.288 1.024 25.6 2.048 39.936 1.024l1.024 20.48h-14.336z m56.32-5.12l-4.096-20.48c14.336-3.072 26.624-6.144 35.84-11.264l9.216 18.432c-11.264 5.12-25.6 10.24-40.96 13.312zM757.76 397.312c-14.336-4.096-27.648-9.216-39.936-15.36l9.216-18.432c11.264 6.144 23.552 10.24 35.84 14.336l-5.12 19.456z m-151.552-2.048l-14.336-14.336c10.24-9.216 20.48-19.456 30.72-27.648l13.312 15.36c-10.24 8.192-19.456 17.408-29.696 26.624z m75.776-37.888c-11.264-10.24-20.48-21.504-28.672-33.792l17.408-11.264c0 1.024 1.024 1.024 1.024 2.048l18.432-12.288 11.264 17.408c-6.144 3.072-11.264 7.168-16.384 11.264 3.072 4.096 7.168 7.168 10.24 10.24l-13.312 16.384z m278.528-1.024l-17.408-10.24c3.072-5.12 4.096-10.24 4.096-16.384 0-5.12-1.024-9.216-3.072-14.336L962.56 307.2c3.072 7.168 4.096 14.336 4.096 22.528 1.024 10.24-2.048 18.432-6.144 26.624z m-224.256-55.296l-9.216-18.432c13.312-6.144 25.6-12.288 38.912-17.408l7.168 19.456c-12.288 5.12-24.576 10.24-36.864 16.384z m184.32-11.264c-9.216-6.144-21.504-11.264-33.792-15.36l5.12-19.456c15.36 4.096 28.672 10.24 40.96 17.408l-12.288 17.408z m-283.648-6.144c-2.048-9.216-3.072-18.432-3.072-27.648 0-5.12 0-11.264 1.024-16.384l20.48 2.048c-1.024 4.096-1.024 9.216-1.024 13.312 0 8.192 1.024 15.36 2.048 23.552l-19.456 5.12z m173.056-9.216l-4.096-20.48c14.336-3.072 28.672-4.096 41.984-4.096v20.48c-11.264 0-24.576 2.048-37.888 4.096zM664.576 204.8l-18.432-8.192c5.12-12.288 12.288-25.6 21.504-37.888l16.384 12.288c-8.192 11.264-14.336 22.528-19.456 33.792z m45.056-63.488l-14.336-14.336c10.24-10.24 20.48-19.456 31.744-27.648l12.288 16.384c-11.264 8.192-21.504 16.384-29.696 25.6z m62.464-48.128l-10.24-17.408c12.288-7.168 24.576-13.312 37.888-18.432l8.192 18.432c-13.312 5.12-24.576 11.264-35.84 17.408zM844.8 61.44l-6.144-19.456c12.288-4.096 26.624-8.192 39.936-11.264l5.12 19.456c-13.312 3.072-26.624 7.168-38.912 11.264z m77.824-20.48l-4.096-20.48c13.312-2.048 26.624-5.12 40.96-6.144l3.072 20.48-39.936 6.144z m79.872-10.24l-2.048-20.48c13.312-1.024 27.648-2.048 40.96-3.072l1.024 20.48-39.936 3.072z m189.44-4.096c-9.216 0-17.408-1.024-26.624-1.024v-20.48c9.216 0 18.432 0 26.624 1.024v20.48z m-107.52-1.024l-1.024-20.48c13.312 0 27.648-1.024 40.96-1.024v20.48c-13.312 1.024-26.624 1.024-39.936 1.024z" fill="#61BCF6" p-id="16467"></path></svg>